# Blender 4.0.1
# www.blender.org
mtllib map.mtl
o back_wall
v 2.351117 -0.180027 0.518517
v -2.807645 -0.180027 0.518518
v -2.807645 4.316441 0.522886
v 2.411191 4.316441 0.522886
vn -0.0000 0.0010 -1.0000
s 0
usemtl BlankWall
f 1//1 3//1 4//1
f 1//1 2//1 3//1
o front_wall
v -2.780430 -0.194230 -5.547830
v 2.469633 -0.194230 -5.547830
v 2.469633 4.355118 -5.552200
v -2.841567 4.355118 -5.552200
vn -0.0000 0.0010 1.0000
s 1
usemtl Khaki
f 5//2 7//2 8//2
f 5//2 6//2 7//2
o ceiling
v -2.902021 4.213693 0.558923
v -2.902021 4.209937 -5.620494
v 2.357208 4.209937 -5.620494
v 2.357208 4.213693 0.558923
vn -0.0000 -1.0000 0.0006
s 0
usemtl Khaki
f 10//3 12//3 9//3
f 10//3 11//3 12//3
o floor
v -2.880906 -0.158233 0.597611
v 2.417847 -0.158233 0.597611
v 2.417847 -0.162686 -5.581182
v -2.850234 -0.162686 -5.581182
vn -0.0000 1.0000 -0.0007
s 0
usemtl Khaki
f 14//4 16//4 13//4
f 14//4 15//4 16//4
o right_wall
v 2.243080 4.419254 0.654090
v 2.211079 4.423151 -5.620371
v 2.275080 -0.377883 -5.625281
v 2.275080 -0.381781 0.649186
vn -0.9999 -0.0101 0.0026
vn -0.9999 -0.0099 0.0025
vn -1.0000 -0.0067 -0.0000
vn -0.9999 -0.0133 0.0051
s 1
usemtl BloodyRed
f 17//5 19//6 20//7
f 17//5 18//8 19//6
o left_wall
v -2.759865 4.378768 0.582834
v -2.759866 4.374935 -5.617749
v -2.759866 -0.347173 -5.612903
v -2.759865 -0.343340 0.587685
vn 1.0000 -0.0000 -0.0000
s 0
usemtl DarkGreen
f 22//9 21//9 24//9
f 22//9 24//9 23//9
o short_box
v 1.245989 1.491249 -0.894913
v 1.725989 1.489975 -2.494912
v 0.145989 1.489601 -2.964912
v -0.354011 1.490859 -1.384912
v -0.354011 -0.159141 -1.383599
v -0.354011 1.490859 -1.384912
v 0.145989 1.489601 -2.964912
v 0.145989 -0.160399 -2.963598
v 1.245989 -0.158750 -0.893599
v 1.245989 1.491249 -0.894913
v -0.354011 1.490859 -1.384912
v -0.354011 -0.159141 -1.383599
v 1.725989 -0.160024 -2.493598
v 1.725989 1.489975 -2.494912
v 1.245989 1.491249 -0.894913
v 1.245989 -0.158750 -0.893599
v 0.145989 -0.160399 -2.963598
v 0.145989 1.489601 -2.964912
v 1.725989 1.489975 -2.494912
v 1.725989 -0.160024 -2.493598
vn -0.0000 1.0000 -0.0008
vn -0.9534 -0.0002 -0.3017
vn -0.2928 0.0008 0.9562
vn 0.9578 0.0002 0.2873
vn 0.2851 -0.0008 -0.9585
s 0
usemtl ShortBox
f 25//10 27//10 28//10
f 30//11 32//11 29//11
f 34//12 36//12 33//12
f 38//13 40//13 37//13
f 42//14 44//14 41//14
f 25//10 26//10 27//10
f 30//11 31//11 32//11
f 34//12 35//12 36//12
f 38//13 39//13 40//13
f 42//14 43//14 44//14
o tall_box
v -1.684011 3.139799 -2.716226
v -0.104011 3.139409 -3.206226
v -0.594011 3.138134 -4.806226
v -2.174011 3.138533 -4.306226
v -1.684011 -0.160200 -2.713598
v -1.684011 3.139799 -2.716226
v -2.174011 3.138533 -4.306226
v -2.174011 -0.161466 -4.303598
v -2.174011 -0.161466 -4.303598
v -2.174011 3.138533 -4.306226
v -0.594011 3.138134 -4.806226
v -0.594011 -0.161864 -4.803598
v -0.594011 -0.161864 -4.803598
v -0.594011 3.138134 -4.806226
v -0.104011 3.139409 -3.206226
v -0.104011 -0.160590 -3.203598
v -0.104011 -0.160590 -3.203598
v -0.104011 3.139409 -3.206226
v -1.684011 3.139799 -2.716226
v -1.684011 -0.160200 -2.713598
vn -0.0000 1.0000 -0.0008
vn -0.9556 0.0002 0.2945
vn -0.3017 -0.0008 -0.9534
vn 0.9562 -0.0002 -0.2928
vn 0.2962 0.0008 0.9551
s 0
usemtl TallBox
f 46//15 48//15 45//15
f 49//16 51//16 52//16
f 54//17 56//17 53//17
f 58//18 60//18 57//18
f 62//19 64//19 61//19
f 46//15 47//15 48//15
f 49//16 50//16 51//16
f 54//17 55//17 56//17
f 58//18 59//18 60//18
f 62//19 63//19 64//19
o light
v 0.651508 4.207966 -3.268172
v 0.651508 4.207548 -2.218172
v -0.648492 4.207548 -2.218172
v -0.648492 4.207966 -3.268172
vn -0.0000 -1.0000 -0.0004
s 1
usemtl Light
f 66//20 68//20 65//20
f 66//20 67//20 68//20
