# Blender 4.0.1
# www.blender.org
mtllib cornellBox.mtl
o back_wall
v 2.553454 -0.740228 -0.447583
v -3.140493 -0.740228 -0.447582
v -3.140493 5.628378 -0.443214
v 2.619760 5.628378 -0.443214
vn -0.0000 0.0007 -1.0000
s 0
usemtl Khaki
f 1//1 3//1 4//1
f 1//1 2//1 3//1
o front_wall
v -3.317565 -0.485833 -5.655267
v 2.608856 -0.485833 -5.655267
v 2.608856 5.490964 -5.659637
v -3.386578 5.490964 -5.659637
vn -0.0000 0.0007 1.0000
s 1
usemtl Khaki
f 5//2 7//2 8//2
f 5//2 6//2 7//2
o ceiling
v -3.219569 5.234903 -0.013940
v -3.219569 5.230451 -6.423166
v 2.719628 5.230451 -6.423166
v 2.719628 5.234903 -0.013940
vn -0.0000 -1.0000 0.0007
s 0
usemtl Khaki
f 10//3 12//3 9//3
f 10//3 11//3 12//3
o floor
v -3.140661 -0.158233 -0.128800
v 2.681442 -0.158233 -0.128800
v 2.681442 -0.162686 -6.005417
v -3.106959 -0.162686 -6.005417
vn -0.0000 1.0000 -0.0008
s 0
usemtl Khaki
f 14//4 16//4 13//4
f 14//4 15//4 16//4
o left_wall
v -2.732756 -0.563929 -0.073275
v -2.700755 -0.568850 -5.897615
v -2.764756 5.493895 -5.902173
v -2.764756 5.498816 -0.077827
vn 1.0000 0.0080 0.0028
vn 1.0000 0.0079 0.0027
vn 1.0000 0.0053 -0.0000
vn 0.9999 0.0106 0.0055
s 1
usemtl BloodyRed
f 17//5 19//6 20//7
f 17//5 18//8 19//6
o right_wall
v 2.325753 -1.011845 -6.256488
v 2.325753 -1.006237 -0.261168
v 2.325753 5.903396 -0.265854
v 2.325753 5.897789 -6.261178
vn -1.0000 -0.0000 -0.0000
s 0
usemtl DarkGreen
f 22//9 24//9 21//9
f 22//9 23//9 24//9
o short_box
v 1.245989 1.491249 -0.894913
v 1.725989 1.489975 -2.494912
v 0.145989 1.489601 -2.964912
v -0.354011 1.490859 -1.384912
v -0.354011 -0.159141 -1.383599
v -0.354011 1.490859 -1.384912
v 0.145989 1.489601 -2.964912
v 0.145989 -0.160399 -2.963598
v 1.245989 -0.158750 -0.893599
v 1.245989 1.491249 -0.894913
v -0.354011 1.490859 -1.384912
v -0.354011 -0.159141 -1.383599
v 1.725989 -0.160024 -2.493598
v 1.725989 1.489975 -2.494912
v 1.245989 1.491249 -0.894913
v 1.245989 -0.158750 -0.893599
v 0.145989 -0.160399 -2.963598
v 0.145989 1.489601 -2.964912
v 1.725989 1.489975 -2.494912
v 1.725989 -0.160024 -2.493598
vn -0.0000 1.0000 -0.0008
vn -0.9534 -0.0002 -0.3017
vn -0.2928 0.0008 0.9562
vn 0.9578 0.0002 0.2873
vn 0.2851 -0.0008 -0.9585
s 0
usemtl Khaki
f 25//10 27//10 28//10
f 30//11 32//11 29//11
f 34//12 36//12 33//12
f 38//13 40//13 37//13
f 42//14 44//14 41//14
f 25//10 26//10 27//10
f 30//11 31//11 32//11
f 34//12 35//12 36//12
f 38//13 39//13 40//13
f 42//14 43//14 44//14
o tall_box
v -1.684011 3.139799 -2.716226
v -0.104011 3.139409 -3.206226
v -0.594011 3.138134 -4.806226
v -2.174011 3.138533 -4.306226
v -1.684011 -0.160200 -2.713598
v -1.684011 3.139799 -2.716226
v -2.174011 3.138533 -4.306226
v -2.174011 -0.161466 -4.303598
v -2.174011 -0.161466 -4.303598
v -2.174011 3.138533 -4.306226
v -0.594011 3.138134 -4.806226
v -0.594011 -0.161864 -4.803598
v -0.594011 -0.161864 -4.803598
v -0.594011 3.138134 -4.806226
v -0.104011 3.139409 -3.206226
v -0.104011 -0.160590 -3.203598
v -0.104011 -0.160590 -3.203598
v -0.104011 3.139409 -3.206226
v -1.684011 3.139799 -2.716226
v -1.684011 -0.160200 -2.713598
vn -0.0000 1.0000 -0.0008
vn -0.9556 0.0002 0.2945
vn -0.3017 -0.0008 -0.9534
vn 0.9562 -0.0002 -0.2928
vn 0.2962 0.0008 0.9551
s 0
usemtl Khaki
f 46//15 48//15 45//15
f 49//16 51//16 52//16
f 54//17 56//17 53//17
f 58//18 60//18 57//18
f 62//19 64//19 61//19
f 46//15 47//15 48//15
f 49//16 50//16 51//16
f 54//17 55//17 56//17
f 58//18 59//18 60//18
f 62//19 63//19 64//19
o light
v 0.879463 3.761783 -0.509864
v 0.879463 1.661783 -0.511538
v -1.720537 1.661783 -0.511537
v -1.720537 3.761783 -0.509863
vn -0.0000 0.0008 -1.0000
s 1
usemtl Light
f 66//20 68//20 65//20
f 66//20 67//20 68//20
o mirror.red
v -2.692698 4.539467 -1.390073
v -2.691868 2.604696 -1.390073
v -2.691868 2.604696 -4.969034
v -2.692698 4.539467 -4.969034
vn 1.0000 0.0004 -0.0000
s 0
usemtl MirrorRed
f 70//21 72//21 69//21
f 70//21 71//21 72//21
o mirror.green
v 4.614582 4.539467 -5.129611
v 4.613751 2.604696 -5.129611
v 4.613751 2.604696 -1.550650
v 4.614582 4.539467 -1.550650
vn -1.0000 0.0004 -0.0000
s 0
usemtl MirrorGreen
f 74//22 76//22 73//22
f 74//22 75//22 76//22
