# Blender 4.0.1
# www.blender.org
mtllib cornellBox.mtl
o area_light
v -0.884011 5.319334 -2.517968
v -0.884011 5.318497 -3.567968
v 0.415989 5.318497 -3.567968
v 0.415989 5.319334 -2.517968
vn -0.0000 -1.0000 0.0008
s 0
usemtl Light
f 2//1 4//1 1//1
f 2//1 3//1 4//1
o back_wall
v 2.553454 -0.740228 -0.447583
v -3.140493 -0.740228 -0.447582
v -3.140493 5.628378 -0.443214
v 2.619760 5.628378 -0.443214
vn -0.0000 0.0007 -1.0000
s 0
usemtl Khaki
f 5//2 7//2 8//2
f 5//2 6//2 7//2
o back_wall.001
v -3.317565 -0.485833 -5.655267
v 2.608856 -0.485833 -5.655267
v 2.608856 5.490964 -5.659637
v -3.386578 5.490964 -5.659637
vn -0.0000 0.0007 1.0000
s 0
usemtl Khaki
f 9//3 11//3 12//3
f 9//3 10//3 11//3
o ceiling
v -3.219569 5.368560 -0.013940
v -3.219569 5.364108 -6.423166
v 2.719628 5.364108 -6.423166
v 2.719628 5.368560 -0.013940
vn -0.0000 -1.0000 0.0007
s 0
usemtl Khaki
f 14//4 16//4 13//4
f 14//4 15//4 16//4
o floor
v -3.140661 -0.158233 -0.128800
v 2.681442 -0.158233 -0.128800
v 2.681442 -0.162686 -6.005417
v -3.106959 -0.162686 -6.005417
vn -0.0000 1.0000 -0.0008
s 0
usemtl Khaki
f 18//5 20//5 17//5
f 18//5 19//5 20//5
o left_wall
v -2.732756 -0.563929 -0.073275
v -2.700755 -0.568850 -5.897615
v -2.764756 5.493895 -5.902173
v -2.764756 5.498816 -0.077827
vn 1.0000 0.0053 -0.0000
vn 0.9999 0.0106 0.0055
s 0
usemtl BloodyRed
f 21//6 23//6 24//6
f 21//7 22//7 23//7
o right_wall
v 2.325753 -1.011845 -6.256488
v 2.325753 -1.006237 -0.261168
v 2.325753 5.903396 -0.265854
v 2.325753 5.897789 -6.261178
vn -1.0000 -0.0000 -0.0000
s 0
usemtl DarkGreen
f 26//8 28//8 25//8
f 26//8 27//8 28//8
o short_box
v 1.245989 1.491249 -0.894913
v 1.725989 1.489975 -2.494912
v 0.145989 1.489601 -2.964912
v -0.354011 1.490859 -1.384912
v -0.354011 -0.159141 -1.383599
v -0.354011 1.490859 -1.384912
v 0.145989 1.489601 -2.964912
v 0.145989 -0.160399 -2.963598
v 1.245989 -0.158750 -0.893599
v 1.245989 1.491249 -0.894913
v -0.354011 1.490859 -1.384912
v -0.354011 -0.159141 -1.383599
v 1.725989 -0.160024 -2.493598
v 1.725989 1.489975 -2.494912
v 1.245989 1.491249 -0.894913
v 1.245989 -0.158750 -0.893599
v 0.145989 -0.160399 -2.963598
v 0.145989 1.489601 -2.964912
v 1.725989 1.489975 -2.494912
v 1.725989 -0.160024 -2.493598
vn -0.0000 1.0000 -0.0008
vn -0.9534 -0.0002 -0.3017
vn -0.2928 0.0008 0.9562
vn 0.9578 0.0002 0.2873
vn 0.2851 -0.0008 -0.9585
s 0
usemtl Khaki
f 29//9 31//9 32//9
f 34//10 36//10 33//10
f 38//11 40//11 37//11
f 42//12 44//12 41//12
f 46//13 48//13 45//13
f 29//9 30//9 31//9
f 34//10 35//10 36//10
f 38//11 39//11 40//11
f 42//12 43//12 44//12
f 46//13 47//13 48//13
o tall_box
v -1.684011 3.139799 -2.716226
v -0.104011 3.139409 -3.206226
v -0.594011 3.138134 -4.806226
v -2.174011 3.138533 -4.306226
v -1.684011 -0.160200 -2.713598
v -1.684011 3.139799 -2.716226
v -2.174011 3.138533 -4.306226
v -2.174011 -0.161466 -4.303598
v -2.174011 -0.161466 -4.303598
v -2.174011 3.138533 -4.306226
v -0.594011 3.138134 -4.806226
v -0.594011 -0.161864 -4.803598
v -0.594011 -0.161864 -4.803598
v -0.594011 3.138134 -4.806226
v -0.104011 3.139409 -3.206226
v -0.104011 -0.160590 -3.203598
v -0.104011 -0.160590 -3.203598
v -0.104011 3.139409 -3.206226
v -1.684011 3.139799 -2.716226
v -1.684011 -0.160200 -2.713598
vn -0.0000 1.0000 -0.0008
vn -0.9556 0.0002 0.2945
vn -0.3017 -0.0008 -0.9534
vn 0.9562 -0.0002 -0.2928
vn 0.2962 0.0008 0.9551
s 0
usemtl Khaki
f 50//14 52//14 49//14
f 53//15 55//15 56//15
f 58//16 60//16 57//16
f 62//17 64//17 61//17
f 66//18 68//18 65//18
f 50//14 51//14 52//14
f 53//15 54//15 55//15
f 58//16 59//16 60//16
f 62//17 63//17 64//17
f 66//18 67//18 68//18
o area_light.001
v 1.347152 3.248723 -0.493998
v 1.347152 1.439871 -0.494834
v -0.633929 1.439871 -0.494834
v -0.633929 3.248723 -0.493998
vn -0.0000 0.0005 -1.0000
s 0
usemtl Light.001
f 70//19 72//19 69//19
f 70//19 71//19 72//19
